# xmcd
#
# Track frame offsets:
#	150
#	29534
#	47478
#	70584
#	87735
#	110856
#	173252
#	187372
#	221018
#	251920
#	291953
#	313420
#
# Disc length: 4529 seconds
#
# Revision: 1
# Processed by: cddbd v1.5.2PL0 Copyright (c) Steve Scherf et al.
# Submitted via: audiograbber 1.83.01
#
DISCID=bf11af0c
DTITLE=Grateful Dead - 73-06-22A PNE Coliseum, Vancouver, Canada
DYEAR=1900
DGENRE=
TTITLE0=Bertha
TTITLE1=BIODTL
TTITLE2=Deal
TTITLE3=Mexicali Blues
TTITLE4=Box Of Rain
TTITLE5=Bird Song
TTITLE6=The Race Is On
TTITLE7=Sugaree
TTITLE8=Looks Like Rain
TTITLE9=Row Jimmy
TTITLE10=Jack Straw
TTITLE11=I Know You Rider
EXTD=
EXTT0=
EXTT1=
EXTT2=
EXTT3=
EXTT4=
EXTT5=
EXTT6=
EXTT7=
EXTT8=
EXTT9=
EXTT10=
EXTT11=
PLAYORDER=
